<svg xmlns="http://www.w3.org/2000/svg" aria-hidden="true" style="position:absolute;width:0;height:0;overflow:hidden">
  <defs>
    <symbol id="icon-antenna" viewBox="0 0 32 32">
      <path fill="#2e2f42" d="m30.773 22.098-8.443-8.505.937-4.615c.242.094.499.144.758.146h.006a2.159 2.159 0 1 0-2.008-1.435l-4.96.605L8.972.161a.534.534 0 0 0-.377-.16.532.532 0 0 0-.373.155L6.709 1.66a.534.534 0 0 0 0 .754l.814.826a14.943 14.943 0 0 0 2.519 17.663.513.513 0 0 0 .146.098c-.034.18-.051.364-.052.547v6.187h-6.4a2.67 2.67 0 0 0-2.667 2.667v1.067c0 .295.239.533.533.533h24.533a.533.533 0 0 0 .533-.533v-1.067a2.67 2.67 0 0 0-2.667-2.667h-6.4v-2.742a15.09 15.09 0 0 0 3.049.32 14.854 14.854 0 0 0 7.04-1.783l.818.823a.534.534 0 0 0 .377.16.532.532 0 0 0 .373-.155l1.513-1.504a.534.534 0 0 0 0-.754zM23.28 6.233a1.067 1.067 0 1 1 .753 1.822h-.003a1.067 1.067 0 0 1-.747-1.823h-.002zm-1.256 3.505-.598 2.946-1.175-1.182 1.774-1.763zm-.605-.902-1.92 1.909-1.485-1.493 3.405-.415zM24.004 28.8a1.6 1.6 0 0 1 1.6 1.6v.533H2.137V30.4a1.6 1.6 0 0 1 1.6-1.6h20.267zm-7.467-2.133v1.067h-5.333v-1.067h5.333zM11.204 25.6v-4.053c0-1.294 1.196-2.347 2.667-2.347s2.667 1.053 2.667 2.347V25.6h-5.333zm6.4-1.696v-2.357c0-1.882-1.675-3.413-3.733-3.413a3.8 3.8 0 0 0-3.281 1.786A13.87 13.87 0 0 1 8.311 4.033l18.602 18.708a13.818 13.818 0 0 1-9.309 1.163zm11.289-.684L7.836 2.039l.755-.752 7.935 7.98c.004 0 .006.007.01.01l13.115 13.191-.757.752z" style="fill:var(--color1, #2e2f42)"/>
      <path fill="#4d5ae5" d="M13.876 20.267h-.005a1.6 1.6 0 1 0-.004 3.2h.005a1.6 1.6 0 1 0 .004-3.2zm.373 1.978a.534.534 0 0 1-.752-.756.534.534 0 0 1 .373-.155.534.534 0 0 1 .374.911h.005z" style="fill:var(--color2, #4d5ae5)"/>
    </symbol>
    <symbol id="icon-clock" viewBox="0 0 32 32">
      <path fill="#2e2f42" d="M31.297 15.301C31.295 6.849 24.442-.002 15.989 0S.686 6.855.688 15.308c.001 6.788 4.422 12.543 10.541 14.545l.108.031a.657.657 0 0 0 .532-.067l-.003.002a.64.64 0 0 0 .282-.352l.001-.005 3.865-12.25a1.912 1.912 0 1 0-.851-3.63l.011-.005-5.106-5.107a.637.637 0 1 0-.902.902l5.103 5.109a1.873 1.873 0 0 0 .532 2.306l.004.003-3.683 11.673C3.844 25.782.118 17.709 2.799 10.431S13.553-.573 20.831 2.108c7.278 2.681 11.004 10.754 8.323 18.032-1.345 3.581-4.003 6.406-7.374 7.937l-.088.036-.398-1.874a.639.639 0 0 0-1.05-.344h.001l-3.837 3.426a.638.638 0 0 0 .227 1.083l.005.001 4.899 1.564a.638.638 0 0 0 .818-.745l.001.004-.391-1.839c5.528-2.374 9.329-7.772 9.329-14.057v-.034.002zm-15.305-.637a.639.639 0 1 1 0 1.278.639.639 0 1 1 0-1.278zm2.101 14.864 2.184-1.948.603 2.84-2.787-.892z" style="fill:var(--color1, #2e2f42)"/>
      <path fill="#4d5ae5" d="M15.354 3.185V4.46a.638.638 0 0 0 1.276 0V3.185a.638.638 0 0 0-1.276 0zM3.876 14.664a.638.638 0 0 0 0 1.276h1.275a.638.638 0 0 0 0-1.276H3.876zm24.232 1.275a.638.638 0 0 0 0-1.276h-1.275a.638.638 0 0 0 0 1.276h1.275z" style="fill:var(--color2, #4d5ae5)"/>
    </symbol>
    <symbol id="icon-diagram" viewBox="0 0 32 32">
      <path fill="#4d5ae5" d="M14.925 14.965h1.066v4.798h-1.066v-4.797zM19.19 17.097h1.066v2.665H19.19v-2.665zM10.661 18.696h1.066v1.066h-1.066v-1.066zM7.463 18.163h1.066v1.599H7.463v-1.599z" style="fill:var(--color2, #4d5ae5)"/>
      <path fill="#2e2f42" d="M1.599 28.291h25.587a1.6 1.6 0 0 0 1.599-1.599V24.56a1.6 1.6 0 0 0-1.599-1.599h-.533V9.668L29.681 6.8a1.608 1.608 0 1 0-.746-.763L26.654 8.2V6.97a1.6 1.6 0 0 0-1.599-1.599H3.733A1.6 1.6 0 0 0 2.134 6.97v15.992h-.533a1.6 1.6 0 0 0-1.599 1.599v2.132a1.6 1.6 0 0 0 1.599 1.599zM30.384 4.837a.533.533 0 1 1 0 1.067.533.533 0 0 1 0-1.067zM3.198 6.969c0-.294.239-.533.533-.533h21.322c.294 0 .533.239.533.533v2.239l-1.066 1.013V8.035a.533.533 0 0 0-.533-.533H4.797a.533.533 0 0 0-.533.533v13.326c0 .294.239.533.533.533h19.19a.533.533 0 0 0 .533-.533v-9.674l1.066-1.01v12.284H3.198V6.969zm4.798 6.93a1.598 1.598 0 1 0 1.107 2.749l1.853.93a.532.532 0 0 0 .636-.123l3.939-4.431 3.872 2.901a.533.533 0 0 0 .686-.039l3.365-3.188v8.131H5.33V8.569h18.124v2.66l-3.771 3.572-3.904-2.927a.533.533 0 0 0-.718.072l-3.993 4.493-1.493-.746c.011-.064.018-.129.02-.193a1.6 1.6 0 0 0-1.599-1.599zm.533 1.599a.533.533 0 1 1-1.067 0 .533.533 0 0 1 1.067 0zm3.198 8.529h5.331v.533a.533.533 0 0 1-.533.533h-4.264a.533.533 0 0 1-.533-.533v-.533zm-10.661.533c0-.294.239-.533.533-.533h9.062v.533a1.6 1.6 0 0 0 1.599 1.599h4.264a1.6 1.6 0 0 0 1.599-1.599v-.533h9.062c.294 0 .533.239.533.533v2.132a.533.533 0 0 1-.533.533H1.598a.533.533 0 0 1-.533-.533V24.56z" style="fill:var(--color1, #2e2f42)"/>
    </symbol>
    <symbol id="icon-astronaut" viewBox="0 0 32 32">
      <path fill="#4d5ae5" d="M31.974 4.524a.538.538 0 0 0-.427-.363h-.003l-1.91-.278-.855-1.731c-.179-.365-.777-.365-.956 0l-.855 1.731-1.91.278a.536.536 0 0 0-.296.91l1.383 1.348-.326 1.903a.536.536 0 0 0 .525.624.524.524 0 0 0 .252-.064l-.003.001 1.709-.899 1.709.899a.536.536 0 0 0 .774-.566v.003l-.326-1.903 1.383-1.348a.535.535 0 0 0 .134-.551l.001.004zm-2.463 1.327a.533.533 0 0 0-.153.475v-.003l.191 1.114-1-.526a.525.525 0 0 0-.501.001l.003-.001-1.001.526.191-1.114a.53.53 0 0 0-.153-.472l-.81-.789 1.119-.163a.537.537 0 0 0 .401-.289l.001-.003.5-1.013.5 1.013a.54.54 0 0 0 .399.292h.003l1.119.163-.809.789zm-3.378 14.671h-1.067v1.067h1.067v-1.067zm0 2.134h-1.067v1.067h1.067v-1.067zm1.067-1.067h-1.067v1.067H27.2v-1.067zm-2.133 0H24v1.067h1.067v-1.067zm-2.667 4.8h-1.067v1.067H22.4v-1.067zm0 2.133h-1.067v1.067H22.4v-1.067zm1.067-1.066H22.4v1.067h1.067v-1.067zm-2.134 0h-1.067v1.067h1.067v-1.067zM16 24.256h-1.067v1.067H16v-1.067zm0 2.133h-1.067v1.067H16v-1.067zm1.067-1.067H16v1.067h1.067v-1.067zm-2.134 0h-1.067v1.067h1.067v-1.067zm-9.066-19.2H4.8v1.067h1.067V6.122zm0 2.133H4.8v1.067h1.067V8.255z" style="fill:var(--color2, #4d5ae5)"/>
      <path fill="#4d5ae5" d="M6.933 7.189H5.866v1.067h1.067V7.189zm-2.133 0H3.733v1.067H4.8V7.189z" style="fill:var(--color2, #4d5ae5)"/>
      <path fill="#2e2f42" d="M24.715 14.159a1.78 1.78 0 0 0-1.179-.704l-.009-.001a1.769 1.769 0 0 0-1.344.355l.004-.003-1.252.96-1.898 1.417-1.358-.541c2.421-1.086 4.114-3.508 4.114-6.32 0-3.823-3.123-6.933-6.961-6.933s-6.961 3.11-6.961 6.933v.001c0 1.398.418 2.698 1.136 3.782l-.016-.025-2.769-.024c-.009 0-.015.004-.023.005a.523.523 0 0 0-.159.032l.004-.001-.038.013c-.006.003-.013.003-.019.006l-3.234 1.597-1.893.911a.429.429 0 0 0-.064.036l.001-.001a1.78 1.78 0 0 0-.594 2.305l-.005-.01c.22.429.595.745 1.056.889a1.768 1.768 0 0 0 1.388-.133l-.009.005 1.388-.738 2.264-1.169 1.357-.008-6.783 6.75c-.316.315-.49.732-.49 1.178s.174.863.49 1.179c.325.323.752.485 1.179.485s.854-.162 1.18-.485l1.314-1.309 1.741-1.3.901.897-3.103 3.088c-.316.315-.49.732-.49 1.178s.174.863.49 1.179c.325.323.753.485 1.18.485s.855-.162 1.18-.485l3.483-3.469 1.01-1-.004-.004c.006-.006.015-.009.022-.015l5.166-5.658 3.471.494a.517.517 0 0 0 .265-.034l-.003.001c.018-.006.033-.015.05-.023.019-.01.039-.015.058-.027l3.213-2.133c.012-.008.018-.021.029-.029.013-.01.029-.014.041-.026l1.271-1.191c.662-.62.753-1.635.212-2.362zM2.13 17.77a.706.706 0 0 1-.563.05l.005.001a.719.719 0 0 1-.215-1.258l.002-.001 1.314-.632.449 1.313-.992.527zm3.498-1.828-1.548.8-.439-1.283 2.027-1.001-.04 1.484zm15.099-6.62a5.765 5.765 0 0 1-.614 2.592l.015-.033-4.181-1.899a1.863 1.863 0 0 0-.782-1.384l-.006-.004 1.464-4.86c2.378.756 4.105 2.974 4.105 5.588zm-11.789 0c0-3.235 2.644-5.867 5.894-5.867.253 0 .5.021.745.052l-1.432 4.754c-.019-.001-.037-.006-.057-.006-1.033 0-1.873.837-1.873 1.867s.84 1.867 1.873 1.867c.694 0 1.294-.383 1.618-.945l3.862 1.755a5.894 5.894 0 0 1-4.737 2.39c-3.25 0-5.894-2.632-5.894-5.867zm5.956.8c0 .441-.362.8-.806.8s-.806-.359-.806-.8c0-.441.362-.8.806-.8s.806.359.806.8zM2.465 25.146a.606.606 0 0 1-.855.001.59.59 0 0 1 0-.844l.962-.958.851.848-.959.955zm3.214 3.734a.606.606 0 0 1-.855.001.59.59 0 0 1 0-.844l.963-.959.852.848-.96.955zm3.481-3.469-.002.001-1.765 1.76-.852-.848 1.765-1.756c.04-.04.065-.088.09-.135.007-.014.02-.026.026-.04.017-.041.019-.085.026-.129.003-.025.014-.047.014-.073 0-.036-.013-.07-.02-.106-.006-.032-.006-.065-.019-.095a.56.56 0 0 0-.091-.138c-.01-.012-.014-.027-.025-.038h-.001l-.001-.002-1.607-1.6c-.017-.017-.039-.024-.058-.038a.563.563 0 0 0-.084-.057l-.003-.001a.444.444 0 0 0-.089-.032l-.004-.001a.502.502 0 0 0-.101-.02h-.023a.468.468 0 0 0-.076.006h.003a.608.608 0 0 0-.108.021l.004-.001a.502.502 0 0 0-.096.046l.002-.001c-.02.011-.042.015-.061.029l-1.773 1.324-.901-.897 2.399-2.386 4.361 4.289-.928.919zm6.819-7.017c-.015-.002-.03.004-.045.003h-.02a.552.552 0 0 0-.282.077l.003-.001a.481.481 0 0 0-.083.061c-.013.011-.028.017-.04.029l-4.698 5.146-4.328-4.257 2.833-2.818a.535.535 0 0 0-.378-.911H8.94v-.001l-2.219.013.028-1.607 3.104.027a6.926 6.926 0 0 0 4.978 2.101h.004c.437 0 .864-.045 1.279-.123.04.032.079.065.13.085l2.41.96.152.758.178.885-3.003-.427zm4.041.178-.313-1.558 1.446-1.08.947 1.257-2.08 1.381zm3.754-2.831-.838.785-.931-1.236.831-.637a.734.734 0 0 1 .547-.143h-.004a.72.72 0 0 1 .479.282l.001.002a.712.712 0 0 1-.085.947z" style="fill:var(--color1, #2e2f42)"/>
      <path fill="#2e2f42" d="m13.602 18.544-2.143-2.133a.534.534 0 0 0-.754 0l-2.142 2.133a.537.537 0 0 0 0 .756l2.142 2.133a.533.533 0 0 0 .754-.001l2.143-2.133a.535.535 0 0 0 0-.756zm-2.519 1.759-1.387-1.381 1.387-1.381 1.387 1.381-1.387 1.381zm6.081-15.232-.258 1.036c.071.018 1.738.452 1.738 2.149h1.067c0-2.017-1.666-2.965-2.547-3.185zm2.547 4.251h-1.067v1.067h1.067V9.322z" style="fill:var(--color1, #2e2f42)"/>
    </symbol>
    <symbol id="icon-instagram" viewBox="0 0 32 32">
      <path d="M31.969 9.408c-.075-1.7-.35-2.869-.744-3.882a7.845 7.845 0 0 0-1.849-2.837l-.001-.001A7.88 7.88 0 0 0 26.597.862l-.054-.018C25.524.45 24.361.175 22.661.1 20.948.019 20.404 0 16.06 0s-4.888.019-6.595.094c-1.7.075-2.869.35-3.882.744a7.845 7.845 0 0 0-2.837 1.849l-.001.001A7.89 7.89 0 0 0 .919 5.466l-.018.054C.507 6.539.232 7.702.157 9.402c-.081 1.713-.1 2.257-.1 6.601s.019 4.888.094 6.595c.075 1.7.35 2.869.744 3.882a7.941 7.941 0 0 0 1.849 2.837l.001.001a7.89 7.89 0 0 0 2.778 1.826l.054.018c1.019.394 2.182.669 3.882.744 1.706.075 2.25.094 6.595.094s4.888-.018 6.595-.094c1.7-.075 2.869-.35 3.882-.744a8.23 8.23 0 0 0 4.663-4.627l.019-.055c.394-1.019.669-2.182.744-3.882.075-1.707.094-2.251.094-6.595s-.006-4.888-.081-6.595zm-2.882 13.065c-.069 1.563-.331 2.407-.55 2.969a5.334 5.334 0 0 1-3.002 3.025l-.036.013c-.563.219-1.413.481-2.969.55-1.688.075-2.194.094-6.464.094s-4.782-.018-6.464-.094c-1.563-.069-2.407-.331-2.969-.55a4.947 4.947 0 0 1-1.837-1.193l-.001-.001a4.988 4.988 0 0 1-1.183-1.804l-.011-.034c-.219-.563-.481-1.413-.55-2.969-.075-1.688-.094-2.194-.094-6.464s.019-4.782.094-6.464c.069-1.563.331-2.407.55-2.969a4.885 4.885 0 0 1 1.198-1.836l.002-.002a4.988 4.988 0 0 1 1.804-1.183l.034-.011c.563-.219 1.413-.481 2.969-.55 1.688-.075 2.194-.094 6.464-.094 4.276 0 4.782.019 6.464.094 1.563.069 2.407.331 2.969.55a4.947 4.947 0 0 1 1.837 1.193l.001.001a4.988 4.988 0 0 1 1.183 1.804l.011.034c.219.563.481 1.413.55 2.969.075 1.688.094 2.194.094 6.464s-.019 4.77-.094 6.457z"/>
      <path d="M16.059 7.782c-4.538 0-8.22 3.682-8.22 8.22s3.682 8.22 8.22 8.22 8.22-3.682 8.22-8.22-3.682-8.22-8.22-8.22zm0 13.553a5.334 5.334 0 0 1-.006-10.664h.005a5.334 5.334 0 0 1 .006 10.664h-.005zM26.524 7.457a1.919 1.919 0 1 1-3.838 0 1.919 1.919 0 1 1 3.838 0z"/>
    </symbol>
    <symbol id="icon-twitter" viewBox="0 0 32 32">
      <path d="M32 6.078c-1.19.522-2.458.868-3.78 1.036a6.555 6.555 0 0 0 2.873-3.58l.013-.046a12.858 12.858 0 0 1-4.076 1.574l-.084.014A6.559 6.559 0 0 0 22.154 3c-3.632 0-6.556 2.948-6.556 6.562 0 .52.044 1.02.152 1.496-5.454-.266-10.28-2.88-13.522-6.862a6.533 6.533 0 0 0-.898 3.316 6.56 6.56 0 0 0 2.891 5.437l.023.015a6.454 6.454 0 0 1-2.997-.825l.033.017v.072c0 3.188 2.274 5.836 5.256 6.446a6.408 6.408 0 0 1-1.669.216h-.054.003a5.842 5.842 0 0 1-1.279-.118l.037.006c.85 2.598 3.262 4.508 6.13 4.57a13.098 13.098 0 0 1-8.12 2.798h-.015.001c-.538 0-1.054-.024-1.57-.09C2.826 27.902 6.287 29 10.004 29h.063-.003c12.072 0 18.672-10 18.672-18.668 0-.29-.01-.57-.024-.848a13.186 13.186 0 0 0 3.258-3.359l.03-.047z"/>
    </symbol>
    <symbol id="icon-facebook" viewBox="0 0 32 32">
      <path d="M21.329 5.313h2.921V.225C23.746.156 22.013 0 19.994 0c-4.212 0-7.097 2.649-7.097 7.519V12H8.249v5.688h4.648V32h5.699V17.689h4.46l.708-5.688h-5.169V8.082c.001-1.644.444-2.769 2.735-2.769z"/>
    </symbol>
    <symbol id="icon-linkedin" viewBox="0 0 32 32">
      <path d="M31.992 32v-.001H32V20.263c0-5.741-1.236-10.164-7.948-10.164-3.227 0-5.392 1.771-6.276 3.449h-.093v-2.913h-6.364v21.364h6.627V21.42c0-2.785.528-5.479 3.977-5.479 3.399 0 3.449 3.179 3.449 5.657v10.401h6.62zM.528 10.636h6.635V32H.528V10.636zM3.843 0C1.722 0 0 1.721 0 3.843s1.721 3.879 3.843 3.879c2.121 0 3.843-1.757 3.843-3.879A3.846 3.846 0 0 0 3.843 0z"/>
    </symbol>
    <symbol id="icon-Logo-first" viewBox="0 0 59 32">
      <path d="m21.714 4 4.004 3.815-7.433-.004v18.51h19.429v-7.077l4 3.811V4.001h-20zm15.824 14.796L26.184 7.979h11.354v10.817zm-3.525 4.817H21.36V11.164h.894V22.77h11.759v.843zm-10.13 6.136-.472-.97h-.389l.684 1.284v.748h.353v-.748l.684-1.284h-.388l-.472.97zm1.739-.969h.084l.767 2.031h-.368l-.164-.476h-.786l-.164.476h-.367l.765-2.031h.234zm-.373 1.278h.595l-.298-.862-.297.862zm2.455-.337-.044-.057c-.052-.069-.093-.135-.121-.2s-.043-.132-.043-.201c0-.106.022-.197.066-.273s.106-.135.186-.176a.583.583 0 0 1 .266-.063h.014-.001c.103 0 .192.021.266.063a.441.441 0 0 1 .103.707 1.004 1.004 0 0 1-.139.122l-.003.002-.141.103.402.475a.822.822 0 0 0 .088-.371v-.008h.29c0 .099-.01.192-.029.28a.87.87 0 0 1-.151.337l.002-.002.298.351h-.389l-.118-.139a.783.783 0 0 1-.203.112l-.006.002a.91.91 0 0 1-.311.053h-.004c-.135 0-.252-.025-.35-.074s-.175-.117-.229-.204a.556.556 0 0 1-.08-.289v-.009c0-.083.017-.155.052-.218s.081-.122.141-.176c.055-.05.118-.1.188-.15zm.167.204-.042.031a.529.529 0 0 0-.11.116.319.319 0 0 0-.057.181c0 .059.013.113.038.162s.064.087.113.116c.05.027.109.042.172.042h.012-.001.003a.512.512 0 0 0 .326-.117l-.001.001-.452-.532zm.08-.371.125-.084c.059-.039.1-.077.126-.114s.038-.086.038-.142c0-.048-.019-.093-.056-.134s-.09-.061-.158-.061h-.008a.203.203 0 0 0-.186.12l-.001.001a.284.284 0 0 0-.024.114v.005c0 .042.011.085.032.13s.051.09.088.138l.023.029zm3.554.596h-.349c-.01.088-.032.163-.064.225s-.079.106-.141.138a.516.516 0 0 1-.218.048l-.025-.001h.001c-.082 0-.152-.016-.211-.049s-.107-.079-.145-.138c-.037-.059-.065-.131-.084-.213s-.026-.177-.026-.279v-.172c0-.108.01-.204.029-.287s.051-.156.091-.213c.04-.058.09-.101.149-.131s.129-.045.209-.045c.098 0 .177.017.237.05s.106.08.137.142a.619.619 0 0 1 .061.223v.002h.349c-.014-.136-.052-.256-.114-.361s-.148-.187-.259-.247a.849.849 0 0 0-.381-.089l-.03.001h.001c-.127 0-.242.022-.345.067s-.188.109-.261.194c-.073.084-.128.185-.167.303s-.057.25-.057.396v.169c0 .146.019.278.056.396s.093.219.165.303c.072.083.158.147.258.192s.213.067.339.067c.164 0 .303-.03.417-.089s.203-.141.266-.244a.811.811 0 0 0 .112-.353v-.003zm1.938-.299v-.112c0-.153-.02-.291-.061-.412s-.097-.226-.172-.311c-.074-.087-.163-.152-.266-.197s-.218-.068-.343-.068c-.125 0-.239.023-.342.068s-.191.11-.266.197c-.074.086-.132.189-.173.311s-.061.258-.061.412v.112c0 .154.02.291.061.413s.1.226.176.311a.768.768 0 0 0 .58.265l.03-.001h-.001c.126 0 .24-.022.343-.067s.192-.111.265-.197c.074-.086.132-.189.172-.311s.06-.259.06-.413zm-.351-.114v.114c0 .113-.011.214-.033.301s-.053.161-.095.222c-.042.059-.093.105-.153.135s-.13.045-.208.045c-.077 0-.146-.015-.206-.045s-.113-.076-.156-.135c-.043-.06-.075-.134-.098-.222s-.033-.188-.033-.301v-.114c0-.113.011-.213.033-.3s.054-.16.096-.219a.42.42 0 0 1 .345-.18h.016-.001c.077 0 .147.015.208.046s.113.074.155.134.075.132.096.219c.022.087.033.186.033.3z"/>
    </symbol>
    <symbol id="icon-Logo-second" viewBox="0 0 59 32">
      <path d="M28.636 3.391h-.078c-.12-.007-.24-.01-.36-.013h-.26c-.227 0-.458.006-.688.017l-.026-.001-.027.001h.001a16.09 16.09 0 0 0-6.105 1.575l.096-.042-.247.119v12.652l.578-.196c.369-.135.906-.298 1.45-.442l.157-.035a19.094 19.094 0 0 1 4.612-.615h.014v1.662c-.207.002-.408.007-.609.017h-.048a18.56 18.56 0 0 0-3.688.575l.129-.029c-1.477.37-2.901.925-4.24 1.652V4.061a16.607 16.607 0 0 1 4.33-1.783l.118-.026c1.256-.338 2.7-.535 4.188-.541h.248c.292.007.577.02.844.041.705.049 1.404.161 2.089.333v1.636a12.329 12.329 0 0 0-1.982-.303l-.042-.002-.041-.004c-.141-.012-.282-.024-.414-.024zm2.88 1.673c.363.028.739.041 1.119.041a17.988 17.988 0 0 0 4.532-.593l-.125.028c1.61-.411 3.02-.977 4.331-1.701l-.093.047v15.938a16.703 16.703 0 0 1-4.331 1.783l-.118.026c-1.37.352-2.778.533-4.192.539h-.107c-1.091 0-2.15-.137-3.161-.395l.088.019V4.755c.246.057.499.109.756.153.422.071.867.123 1.301.155zm8.111.123-.578.195c-.532.179-1.068.339-1.608.481-1.44.385-3.094.609-4.8.616h-.004c-.377 0-.724-.01-1.06-.032l-.461-.03v13.015l.396.035c.367.032.746.048 1.128.048a15.376 15.376 0 0 0 3.89-.514l-.107.024a15.756 15.756 0 0 0 3.05-1.103l-.094.041.247-.119V5.188zM20.421 25.836a.853.853 0 0 0-.615-.26h-.03.001-.013a.962.962 0 0 0-.365.072l.006-.002a.834.834 0 0 0-.473.475l-.002.006a.947.947 0 0 0-.067.352v2.176l-.001.034c0 .149.032.29.088.418l-.003-.007c.051.111.125.21.217.291a.742.742 0 0 0 .293.153l.005.001c.105.03.214.045.324.045a.906.906 0 0 0 .826-.562l.002-.006a.85.85 0 0 0 .069-.34v-.249h-.567V28.639a.51.51 0 0 1-.034.184l.001-.003a.345.345 0 0 1-.082.122.305.305 0 0 1-.117.061l-.002.001a.345.345 0 0 1-.119.02.285.285 0 0 1-.266-.115l-.001-.001a.512.512 0 0 1-.076-.268l.001-.024v.001-2.044c0-.109.026-.213.071-.305l-.002.004a.284.284 0 0 1 .278-.129h-.001c.049-.002.097.008.141.03s.082.053.112.092a.458.458 0 0 1 .094.279v.012-.001.187h.561v-.231c0-.133-.025-.26-.071-.376l.002.007a.888.888 0 0 0-.189-.305zm3.367-.025a1 1 0 0 0-.645-.238.968.968 0 0 0-.638.239l.001-.001a.894.894 0 0 0-.218.298l-.002.006a.994.994 0 0 0-.082.399v.022-.001 2.079c-.004.146.024.292.082.426a.846.846 0 0 0 .219.29l.001.001c.087.08.188.143.299.183a.972.972 0 0 0 .983-.184l-.001.001a.89.89 0 0 0 .297-.665l-.002-.054v.002-2.1c0-.144-.03-.281-.085-.406l.003.006a.938.938 0 0 0-.214-.304zm-.265 2.803.001.032a.373.373 0 0 1-.113.269.411.411 0 0 1-.535 0h.001a.38.38 0 0 1-.113-.271l.001-.032v.001-2.079l-.001-.032c0-.106.043-.201.113-.269a.411.411 0 0 1 .535 0h-.001a.38.38 0 0 1 .113.271l-.001.032v-.001 2.079zm4.687.929v-3.936h-.545l-.716 2.084h-.01l-.721-2.084h-.539v3.936h.562v-2.395h.01l.551 1.693h.28l.555-1.693h.01v2.395h.562zm3.195-3.661a.787.787 0 0 0-.313-.213l-.005-.002a1.226 1.226 0 0 0-.387-.061h-.856v3.936h.561v-1.537h.289c.175.008.349-.029.506-.108a.816.816 0 0 0 .306-.297l.002-.004a.926.926 0 0 0 .128-.337l.001-.006c.022-.148.032-.298.03-.448l.001-.067c0-.175-.02-.346-.059-.51l.003.015a.826.826 0 0 0-.207-.362zm-.289 1.2a.485.485 0 0 1-.053.208l.001-.003a.31.31 0 0 1-.143.137l-.002.001a.557.557 0 0 1-.234.05l-.033-.001h.002-.256v-1.338h.289l.025-.001c.083 0 .161.018.232.051l-.003-.001a.318.318 0 0 1 .131.143l.001.002a.567.567 0 0 1 .049.218v.263c0 .092.006.186 0 .27h-.006zm2.946-1.476h-.46l-.867 3.936h.561l.165-.846h.765l.165.846h.561l-.889-3.936zm-.518 2.555.276-1.427h.01l.275 1.427h-.561zm4.142-.183h-.01l-.847-2.371h-.539v3.936h.561v-2.367h.012l.857 2.367h.528v-3.936h-.561v2.371zm3.427-2.372-.451 1.565h-.012l-.451-1.565h-.594l.77 2.273v1.664h.561v-1.664l.77-2.273h-.594zm-22.256 5.048h.27v.759h.184v-.759h.269v-.155h-.723v.155zm2.273-.156-.354.914h.195l.075-.208h.364l.078.208h.2l-.363-.914h-.195zm-.029.553.124-.339.124.339H21.1zm2.275.025h.211v.118a.356.356 0 0 1-.217.077h-.013a.23.23 0 0 1-.18-.087.386.386 0 0 1-.068-.221v-.018.001c0-.203.088-.305.263-.305l.019-.001c.09 0 .166.061.188.145v.001l.181-.035c-.039-.179-.168-.269-.387-.269h-.012a.454.454 0 0 0-.307.119.453.453 0 0 0-.131.352v-.001.022c0 .123.044.235.118.322l-.001-.001a.445.445 0 0 0 .32.135l.029-.001h-.001.015a.543.543 0 0 0 .372-.146v-.36h-.396v.154zm2.294-.578h-.185v.914h.64v-.155h-.455v-.759zm1.94 0h-.185v.914h.185v-.914zm1.897.611-.374-.61h-.179v.914h.172v-.597l.367.597h.184v-.914h-.169v.61zm1.714-.099h.455v-.155h-.455v-.201h.49v-.155h-.675v.914h.694v-.155h-.509v-.247zm4.157-.151h-.36v-.36h-.184v.914h.184v-.4h.36v.4h.184v-.914h-.184v.36zm1.725.151h.457v-.155h-.457v-.201h.492v-.155h-.675v.914h.692v-.155h-.509v-.247zm2.339 0c.159-.025.24-.109.24-.254a.215.215 0 0 0-.089-.203h-.001a.509.509 0 0 0-.268-.054h.002-.387v.914h.184v-.382H39.172c.036 0 .071.007.103.021l-.002-.001c.027.017.049.04.065.067l.2.291h.22l-.111-.179a.644.644 0 0 0-.2-.218l-.002-.001zm-.185-.126h-.136v-.23h.145a.461.461 0 0 1 .19.023l-.003-.001c.025.022.04.053.04.088v.007c-.001.018-.006.035-.014.051s-.02.029-.035.04a.509.509 0 0 1-.155.023l-.033-.001h.002zm1.949.126h.455v-.155h-.455v-.201h.492v-.155h-.676v.914h.694v-.155h-.509v-.247z"/>
    </symbol>
    <symbol id="icon-Logo-third" viewBox="0 0 59 32">
      <path d="M21.034 28.128c.009 0 .018.002.027.005s.016.008.022.014l.126.119a1.043 1.043 0 0 1-.348.223l-.007.002c-.14.052-.302.081-.47.081h-.034.002-.026c-.16 0-.314-.028-.456-.079l.009.003a1.048 1.048 0 0 1-.358-.214l.001.001a.944.944 0 0 1-.228-.323l-.002-.006a1.056 1.056 0 0 1-.08-.408v-.015.001-.014a1 1 0 0 1 .09-.416l-.003.006a.99.99 0 0 1 .243-.328l.001-.001c.107-.092.233-.164.371-.212l.008-.002c.155-.051.321-.077.487-.076.155-.003.309.02.453.069.125.046.24.111.339.19l-.106.127a.087.087 0 0 1-.027.023.068.068 0 0 1-.035.009h-.008a.107.107 0 0 1-.047-.014l-.057-.034-.079-.043a.865.865 0 0 0-.245-.075l-.005-.001a1.183 1.183 0 0 0-.546.046l.008-.002a.733.733 0 0 0-.45.407l-.002.005a.844.844 0 0 0-.065.327v.007c-.002.116.02.23.065.34a.73.73 0 0 0 .432.406l.005.002a.951.951 0 0 0 .318.054h.008c.064.001.129-.003.192-.011a.783.783 0 0 0 .418-.175l-.001.001a.102.102 0 0 1 .06-.022zm3.644-.596c.002.143-.027.285-.085.419-.051.122-.132.233-.238.326s-.232.166-.373.214c-.309.101-.65.101-.959 0a1.131 1.131 0 0 1-.372-.215l.001.001a.962.962 0 0 1-.238-.323l-.002-.006a1.066 1.066 0 0 1 .002-.847l-.003.007a.997.997 0 0 1 .239-.329l.001-.001c.106-.09.232-.16.371-.206.308-.102.651-.102.959 0 .14.049.267.122.372.214a.954.954 0 0 1 .323.718v.031-.002zm-.331 0v-.015a.894.894 0 0 0-.062-.328l.002.006a.692.692 0 0 0-.431-.41l-.005-.001a1.105 1.105 0 0 0-.705.003l.008-.002a.744.744 0 0 0-.267.159.687.687 0 0 0-.168.247l-.002.005a.98.98 0 0 0 .002.681l-.002-.007a.707.707 0 0 0 .432.409l.005.001c.225.072.472.072.697 0a.7.7 0 0 0 .434-.405l.002-.005a.859.859 0 0 0 .06-.319v-.019.001zm2.817.353.033.076.036-.076a.682.682 0 0 1 .043-.077l-.002.003.806-1.252c.016-.022.03-.035.046-.039s.035-.007.055-.007h.012-.001.238v2.036h-.282v-1.56l-.002-.035.002-.037v.002l-.811 1.269c-.01.019-.027.035-.047.046s-.045.017-.069.017h-.046c-.025 0-.049-.006-.069-.017s-.037-.027-.047-.047l-.834-1.277v1.635h-.273v-2.032h.249c.02 0 .038.003.056.008h-.001c.02.008.035.022.044.039l.823 1.253c.016.023.03.047.041.073zm3.033-.101v.763h-.316v-2.034h.727c.131 0 .259.016.381.046l-.011-.002a.79.79 0 0 1 .28.129l-.002-.002a.535.535 0 0 1 .157.196l.001.003a.61.61 0 0 1 .054.253v.019a.559.559 0 0 1-.227.45l-.002.001a.81.81 0 0 1-.273.134l-.006.001c-.106.03-.228.047-.354.047h-.028.001l-.382-.005zm0-.218h.391a.878.878 0 0 0 .242-.033l-.006.002a.541.541 0 0 0 .178-.089l-.001.001a.379.379 0 0 0 .145-.299v-.008c.004-.057-.007-.113-.032-.166s-.062-.1-.11-.139a.689.689 0 0 0-.426-.109h.002-.382v.838zm4.24.983h-.254a.115.115 0 0 1-.104-.065v-.001l-.215-.492h-1.077l-.222.492a.116.116 0 0 1-.104.066h-.255l.946-2.036h.328l.959 2.036zm-1.562-.756h.89l-.375-.829a1.36 1.36 0 0 1-.069-.182l-.002-.009-.036.106a1.095 1.095 0 0 1-.037.092l.002-.006-.372.828zm2.925-1.271a.14.14 0 0 1 .047.036l1.38 1.535v-1.58h.282v2.036h-.162a.16.16 0 0 1-.062-.012h.001a.158.158 0 0 1-.05-.038l-1.379-1.534.002.035-.002.037v-.002 1.514h-.282v-2.036h.168a.18.18 0 0 1 .057.009h-.001zm4.034 1.217v.809h-.316v-.809l-.872-1.226h.288c.023 0 .045.007.063.018a.204.204 0 0 1 .043.045v.001l.546.791c.022.034.041.065.057.094s.028.058.039.086l.041-.088a.659.659 0 0 1 .055-.095l-.001.002.538-.797a.21.21 0 0 1 .041-.043.103.103 0 0 1 .063-.02h.291l-.874 1.232zm-12.826-4.644c.137.015.276.027.416.038 2.128-.813 3.929-2.145 5.176-3.828s1.887-3.643 1.838-5.634l-2.346-2.004c.477 2.12.254 4.313-.644 6.331s-2.436 3.783-4.441 5.098z"/>
      <path d="m26.17 23.002.063.011c2.143-1.31 3.776-3.138 4.69-5.25s1.064-4.408.433-6.594l-3.341-2.854c1.351 2.346 1.895 4.972 1.568 7.572s-1.511 5.067-3.414 7.115zm11.33-6.978c-.568 2.188-1.946 4.162-3.931 5.628-.58.43-1.205.814-1.868 1.145 1.616-.406 3.102-1.123 4.342-2.097s2.202-2.178 2.812-3.52L37.5 16.024z"/>
      <path d="m36.968 15.702-1.929-1.648c-.037 1.879-.662 3.716-1.811 5.318s-2.779 2.914-4.721 3.796h.009c.433 0 .865-.022 1.295-.066 1.815-.633 3.418-1.64 4.667-2.931s2.104-2.826 2.489-4.469zm-10.519-8.59-2.301-1.969c-2.057.679-3.827 1.873-5.077 3.426s-1.922 3.392-1.928 5.276c.008 2.082.828 4.103 2.331 5.742s3.603 2.803 5.967 3.308c2.111-2.197 3.346-4.912 3.528-7.75s-.701-5.652-2.52-8.032zm15.837 8.287c-.008-2.47-1.161-4.838-3.205-6.585s-4.815-2.731-7.707-2.739h-.021c-1.39 0-2.726.227-3.974.647l.088-.026 14.09 12.039a7.93 7.93 0 0 0 .729-3.336v-.001z"/>
    </symbol>
    <symbol id="icon-Logo-four" viewBox="0 0 59 32">
      <path d="M13.759 12.296h-.002c-1.363 0-2.468.996-2.468 2.225v.002c0 1.229 1.105 2.225 2.468 2.225h.002c1.363 0 2.468-.996 2.468-2.225v-.002c0-1.229-1.105-2.225-2.468-2.225zm18.219-.711c-.004-1.707-.758-3.343-2.096-4.551s-3.153-1.887-5.047-1.891c-1.894.003-3.709.683-5.049 1.89s-2.094 2.844-2.098 4.552v9.414s14.288-1.435 14.289-9.412v-.001zM6.286 24.088c.003 1.188.528 2.326 1.46 3.166s2.194 1.314 3.511 1.317c1.317-.003 2.579-.477 3.511-1.317s1.456-1.978 1.46-3.165v-6.55s-9.942.999-9.942 6.549zm4.971 1.174c-.258 0-.509-.069-.723-.198s-.381-.312-.479-.527-.124-.45-.074-.678c.05-.228.174-.437.356-.601s.414-.276.666-.321c.252-.045.514-.022.752.067s.441.239.584.432a1.101 1.101 0 0 1 .118 1.11l.003-.007c-.07.15-.165.277-.281.381l-.001.001c-.121.109-.265.196-.423.256s-.328.09-.499.09v-.004zm9.091-2.111v2.438h-.502v-2.438h.502zm.971 1.042v.392h-1.108v-.392h1.108zm.117-1.042v.393h-1.225v-.393h1.225zm2.294 1.162v.116c0 .185-.025.352-.075.499s-.121.273-.213.377a.934.934 0 0 1-.322.234l-.006.002a1.02 1.02 0 0 1-.405.082h-.016.001a.965.965 0 0 1-.747-.317l-.001-.001a1.096 1.096 0 0 1-.214-.369l-.002-.008a1.505 1.505 0 0 1-.075-.477v-.024.001-.116c0-.186.025-.353.075-.499.05-.147.121-.273.213-.377a.953.953 0 0 1 .322-.236l.006-.002c.127-.055.267-.082.42-.082s.294.027.42.082c.13.056.239.137.327.237l.001.001c.093.104.164.229.214.377.051.146.077.312.077.499zm-.508.116v-.119c0-.13-.012-.243-.035-.342s-.058-.181-.104-.248a.46.46 0 0 0-.382-.203h-.012.001-.011a.459.459 0 0 0-.38.202l-.001.002c-.045.067-.079.15-.102.248s-.035.212-.035.342v.119c0 .128.012.242.035.341a.748.748 0 0 0 .106.252l-.002-.003c.046.067.102.118.167.152s.141.052.226.052h.013a.45.45 0 0 0 .378-.203l.001-.002a.758.758 0 0 0 .101-.244l.001-.005c.023-.099.035-.213.035-.341zm2.138.522v-.005a.317.317 0 0 0-.021-.115l.001.002a.23.23 0 0 0-.07-.097c-.035-.03-.083-.06-.146-.089s-.143-.059-.243-.09a3.192 3.192 0 0 1-.335-.129l.02.008a1.291 1.291 0 0 1-.264-.158l.003.002a.679.679 0 0 1-.175-.206l-.002-.003a.576.576 0 0 1-.064-.265v-.012.001c0-.102.022-.194.067-.276a.639.639 0 0 1 .186-.213l.002-.001a.865.865 0 0 1 .279-.137l.006-.002c.106-.031.228-.049.354-.049h.01c.18 0 .337.032.47.097s.238.154.311.266c.07.106.112.235.112.375v.013-.001h-.499v-.008a.384.384 0 0 0-.046-.182l.001.002a.313.313 0 0 0-.132-.128l-.002-.001a.471.471 0 0 0-.208-.047h-.017.001-.018a.517.517 0 0 0-.204.042l.003-.001a.297.297 0 0 0-.13.104l-.001.001a.256.256 0 0 0-.044.145v.002c0 .041.01.079.03.112.021.034.052.065.094.094s.092.056.152.082c.06.026.13.051.209.075.133.04.249.085.35.136s.186.107.254.169c.127.115.206.28.206.464v.02-.001c0 .106-.021.201-.062.285s-.101.155-.179.213c-.078.058-.171.102-.28.132s-.229.045-.363.045c-.127 0-.25-.017-.367-.049l.01.002a1.067 1.067 0 0 1-.324-.148l.004.002c-.095-.065-.171-.147-.228-.248s-.085-.219-.085-.357h.504c0 .076.012.14.035.192s.056.095.099.127a.417.417 0 0 0 .151.069l.003.001c.06.015.126.022.198.022h.019c.07 0 .137-.014.198-.039l-.004.001a.271.271 0 0 0 .125-.101l.001-.001a.27.27 0 0 0 .042-.144v-.003zm1.934-1.8v2.438h-.501v-2.438h.501zm.75 0v.393h-1.989v-.393h1.989zm1.922 2.046v.392h-1.297v-.392h1.297zm-1.134-2.046v2.438h-.502v-2.438h.502zm.965.993v.382h-1.128v-.382h1.128zm.167-.993v.393h-1.296v-.393h1.296zm.295 0h.909c.186 0 .346.028.48.084.135.056.239.138.311.248s.109.244.109.403v.022a.775.775 0 0 1-.069.32l.002-.005a.623.623 0 0 1-.185.232l-.001.001a.965.965 0 0 1-.273.145l-.007.002-.159.084h-.79l-.003-.392h.588c.088 0 .161-.016.219-.047s.102-.075.131-.131a.405.405 0 0 0 .045-.185v-.009c0-.078-.015-.146-.044-.203s-.073-.1-.132-.131-.133-.045-.223-.045h-.407v2.044h-.502V23.15zm1.362 2.438-.556-1.086.531-.003.562 1.066v.023h-.537zm2.637-.869h-.621v-.392h.64a.498.498 0 0 0 .218-.049l-.003.001c.06-.032.104-.077.132-.134s.042-.121.042-.192c0-.073-.014-.14-.042-.203s-.072-.113-.132-.151-.138-.057-.234-.057h-.447v2.044h-.502v-2.438h.949c.191 0 .354.035.49.104a.743.743 0 0 1 .424.671v.027-.001c0 .157-.036.294-.109.408s-.177.204-.315.266c-.136.062-.3.094-.49.094zm2.896.477v.392h-1.297v-.392h1.297zm-1.133-2.046v2.438h-.502v-2.438h.502zm.964.993v.382h-1.128v-.382h1.128zm.168-.993v.393h-1.296v-.393h1.296zm1.418 0v2.438h-.501v-2.438h.501zm.75 0v.393h-1.989v-.393h1.989zm1.921 2.046v.392h-1.297v-.392h1.297zm-1.133-2.046v2.438h-.502v-2.438h.502zm.964.993v.382h-1.128v-.382h1.128zm.168-.993v.393h-1.296v-.393h1.296zm.294 0h.909c.186 0 .347.028.48.084.135.056.239.138.311.248s.109.244.109.403v.022a.775.775 0 0 1-.069.32l.002-.005a.623.623 0 0 1-.185.232l-.001.001a.965.965 0 0 1-.273.145l-.007.002-.159.084h-.79l-.003-.392h.588c.088 0 .161-.016.219-.047s.102-.075.131-.131a.405.405 0 0 0 .045-.185v-.009c0-.078-.014-.146-.044-.203s-.073-.1-.132-.131a.475.475 0 0 0-.206-.045h-.018.001-.407v2.044h-.502V23.15zm1.363 2.438-.556-1.086.531-.003.563 1.066v.023h-.537zm2.103-.638v-.005a.317.317 0 0 0-.021-.115l.001.002a.23.23 0 0 0-.07-.097c-.035-.03-.083-.06-.146-.089s-.143-.059-.243-.09a3.087 3.087 0 0 1-.334-.129l.019.008a1.291 1.291 0 0 1-.264-.158l.003.002a.581.581 0 0 1-.242-.471v-.014.001c0-.102.022-.194.067-.276a.639.639 0 0 1 .186-.213l.002-.001a.865.865 0 0 1 .279-.137l.006-.002c.111-.032.232-.049.363-.049.18 0 .337.032.47.097s.238.154.311.266c.07.106.112.235.112.375v.013-.001h-.499v-.008a.384.384 0 0 0-.046-.182l.001.002a.313.313 0 0 0-.132-.128l-.002-.001a.471.471 0 0 0-.208-.047h-.017.001-.018a.517.517 0 0 0-.204.042l.003-.001a.297.297 0 0 0-.13.104l-.001.001a.256.256 0 0 0-.044.145v.002c0 .041.01.079.03.112.021.034.052.065.094.094s.092.056.152.082c.06.026.13.051.209.075.133.04.249.085.35.136s.186.107.254.169c.127.115.206.28.206.464v.02-.001c0 .106-.021.201-.062.285s-.101.155-.179.213c-.078.058-.171.102-.28.132s-.229.045-.363.045c-.127 0-.25-.017-.367-.049l.01.002a1.067 1.067 0 0 1-.324-.148l.004.002c-.095-.065-.171-.147-.228-.248s-.085-.219-.085-.357h.504c0 .076.012.14.035.192s.056.095.099.127a.417.417 0 0 0 .151.069l.003.001c.06.015.126.022.198.022h.019c.07 0 .137-.014.198-.039l-.004.001a.271.271 0 0 0 .125-.101l.001-.001a.27.27 0 0 0 .042-.144v-.003z"/>
    </symbol>
    <symbol id="icon-Logo-five" viewBox="0 0 59 32">
      <path d="M15.31 25.356c.14.156.215.352.211.553.007.131-.018.262-.075.383s-.143.229-.252.316c-.273.185-.61.276-.951.255h-1.671v-3.504h1.637c.323-.019.644.063.907.233.106.08.19.18.245.294s.08.238.073.361l.001.033c0 .194-.072.37-.191.504l.001-.001a.91.91 0 0 1-.492.273l-.006.001c.225.036.42.144.564.299l.001.001zm-1.961-.529h.7a.72.72 0 0 0 .448-.117l-.003.002c.053-.043.093-.096.12-.155s.037-.123.031-.187l.001-.032a.397.397 0 0 0-.149-.31l-.001-.001a.727.727 0 0 0-.402-.12l-.058.002h.003-.688v.919zm1.213 1.344c.056-.044.1-.099.129-.161s.041-.129.036-.195c.004-.068-.009-.135-.038-.198s-.074-.118-.131-.162a.78.78 0 0 0-.43-.128l-.047.001h.002-.734v.964h.743a.79.79 0 0 0 .473-.124l-.003.002zm4.094.691-.911-1.369h-.342v1.369h-.783v-3.504h1.483a1.563 1.563 0 0 1 1.037.301l-.004-.003c.207.19.332.441.353.707s-.066.529-.242.743a1.237 1.237 0 0 1-.7.355l-.007.001.97 1.4h-.852zm-1.253-1.847h.641c.445 0 .668-.177.668-.531.005-.072-.008-.145-.036-.212s-.072-.13-.128-.181a.746.746 0 0 0-.507-.142h.003-.648l.008 1.067zm5.536 1.142h-1.561l-.276.705h-.821l1.434-3.465h.888l1.428 3.465h-.822l-.27-.705zm-.21-.53-.57-1.479-.57 1.479h1.141zm5.57 1.236h-.778l-1.744-2.383v2.383h-.776v-3.504h.776l1.744 2.397v-2.397h.778v3.504zm4.438-.839c-.161.265-.406.48-.704.618-.339.154-.714.23-1.093.221h-1.384v-3.504h1.384c.378-.009.754.065 1.093.216.298.135.543.348.704.611.16.285.243.6.243.919s-.083.634-.243.919zm-.89-.084c.222-.233.344-.529.344-.836s-.122-.603-.344-.836a1.436 1.436 0 0 0-.979-.298h.004-.54v2.268h.54c.355.02.705-.087.974-.298zM23.425 3.867s10.038 3.412 9.825 8.349v8.351s-10.031-3.413-9.821-8.351l-.004-8.349zm18.769 14.744c1.896-1.175 4.089-1.902 6.378-2.116v-2.614c-2.638.915-4.875 2.575-6.378 4.73z"/>
      <path d="M41.055 19.399c1.552-2.813 4.242-4.983 7.517-6.065V5.802s-14.296 4.86-13.993 11.891v11.889s.637-.217 1.639-.625c0-.38 0-.764.046-1.149.296-3.264 2.02-6.289 4.792-8.409z"/>
      <path d="M39.695 23.815c.075-.825.243-1.64.5-2.434-1.726 1.831-2.772 4.103-2.989 6.497-.021.226-.032.452-.038.685a40.18 40.18 0 0 0 2.988-1.418l-.238.114a10.801 10.801 0 0 1-.269-2.427c0-.358.017-.711.05-1.06l-.003.045zm.569.043a10.636 10.636 0 0 0 .189 3.186l-.012-.069c3.906-2.104 8.294-5.355 8.125-9.284v-.342c-2.791.281-5.401 1.379-7.431 3.126a10.503 10.503 0 0 0-.868 3.341l-.003.042z"/>
    </symbol>
    <symbol id="icon-Logo-six" viewBox="0 0 59 32">
      <path d="M30.588 15.682a1.674 1.674 0 0 1-.346-1.144v.005-1.65c0-.506.115-.89.344-1.153s.624-.394 1.183-.393c.525 0 .898.112 1.119.336.24.286.358.635.331.987v.388h-.94v-.393l.001-.048c0-.119-.01-.235-.029-.348l.002.012a.372.372 0 0 0-.133-.227l-.001-.001a.534.534 0 0 0-.3-.091l-.042.002h.002l-.04-.001a.578.578 0 0 0-.32.097l.002-.001a.44.44 0 0 0-.155.249l-.001.003a1.854 1.854 0 0 0-.037.377v.032-.002 2.003c-.015.193.027.387.121.562.047.06.112.107.188.136s.16.041.242.032c.12.009.24-.024.333-.091a.402.402 0 0 0 .14-.241v-.002c.019-.107.029-.23.029-.356l-.001-.048v.002-.406h.94v.371c.026.367-.088.732-.325 1.038-.216.245-.584.368-1.125.368s-.949-.131-1.181-.403zm3.913.017c-.237-.257-.356-.631-.356-1.127v-1.736c0-.49.119-.861.356-1.113s.634-.377 1.191-.376c.553 0 .947.125 1.185.376.237.252.358.623.358 1.113v1.736c0 .49-.121.866-.362 1.125s-.634.388-1.181.388-.951-.131-1.191-.386zm1.628-.417a.959.959 0 0 0 .113-.517v.003-2.125a.942.942 0 0 0-.113-.509l.002.005c-.048-.061-.114-.109-.192-.138s-.164-.04-.248-.03c-.084-.01-.17 0-.248.03s-.145.077-.193.138a.915.915 0 0 0-.113.507v-.003 2.136a.956.956 0 0 0 .115.519l-.002-.005a.576.576 0 0 0 .198.127.672.672 0 0 0 .489-.001l-.005.002a.58.58 0 0 0 .198-.127v-.01zm2.235-3.884h1.012l.761 3.203.778-3.203h.984l.099 4.623h-.728l-.078-3.213-.751 3.213h-.584l-.778-3.225-.072 3.225h-.735l.091-4.623zm4.769 0h1.576c.908 0 1.362.438 1.362 1.313 0 .838-.478 1.257-1.434 1.256H44.1v2.055h-.973l.006-4.623zm1.346 1.976c.096.011.194.003.286-.022s.177-.067.249-.124a.741.741 0 0 0 .139-.526v.003l.001-.05c0-.132-.017-.259-.05-.381l.002.01c-.014-.046-.038-.089-.072-.127s-.075-.069-.123-.093a.987.987 0 0 0-.383-.075l-.053.001h.002-.377v1.382h.377zm2.995-1.976h1.045l1.072 4.623h-.907l-.212-1.066h-.932l-.218 1.066h-.92l1.072-4.623zm.893 3.021-.364-1.941-.364 1.941h.728zm2.089-3.021h.681l1.304 2.637v-2.637h.807v4.623H52.6l-1.311-2.753v2.753h-.835l.002-4.623zm4.683 2.86-1.084-2.854h.912l.661 1.833.621-1.833h.893l-1.07 2.854v1.763h-.934v-1.763zM32.09 18.042v.242h-.794v1.879h-.333v-1.879h-.798v-.242h1.924zm2.488 2.121h-.263a.126.126 0 0 1-.067-.02.116.116 0 0 1-.043-.048v-.001l-.23-.504h-1.101l-.23.504a.165.165 0 0 1-.035.057.117.117 0 0 1-.066.02h-.263l.973-2.12h.339l.984 2.112zm-1.61-.788h.918l-.389-.863a1.307 1.307 0 0 1-.069-.19l-.002-.01-.037.113-.035.089-.385.861zm3.288.579c.061.003.122.003.183 0 .053-.005.105-.013.156-.025.048-.01.094-.023.14-.039.043-.015.086-.034.13-.052v-.477h-.389a.086.086 0 0 1-.028-.004.07.07 0 0 1-.039-.03.038.038 0 0 1-.005-.019v-.165h.755v.813a1.48 1.48 0 0 1-.648.217h-.006a2.686 2.686 0 0 1-.265.013h-.02.001-.01c-.172 0-.337-.029-.49-.082l.011.003a1.194 1.194 0 0 1-.391-.223l.002.001a1.018 1.018 0 0 1-.248-.33l-.003-.006a1.053 1.053 0 0 1-.09-.43v-.011.001-.012c0-.156.032-.304.091-.438l-.003.007a.979.979 0 0 1 .25-.335l.001-.001c.11-.094.239-.169.381-.217l.008-.003c.167-.054.343-.081.521-.079.091 0 .181.006.27.018.227.033.429.121.598.251l-.003-.002-.093.131c-.007.012-.018.022-.032.029s-.029.011-.044.011a.127.127 0 0 1-.061-.017h.001a1.011 1.011 0 0 1-.1-.053l.005.003a.875.875 0 0 0-.123-.055l-.007-.002a1.198 1.198 0 0 0-.392-.065h-.035.002-.01c-.131 0-.257.022-.374.061l.008-.002a.839.839 0 0 0-.287.169l.001-.001a.73.73 0 0 0-.179.259l-.002.005a.978.978 0 0 0 .003.714l-.002-.007c.043.1.109.191.195.267.08.073.177.13.284.168.124.037.255.051.385.042zm3.101-.033h1.062v.242h-1.387v-2.12h.333l-.008 1.879zm2.167.241h-.333v-2.12h.333v2.12zm1.237-2.11c.02.01.037.023.051.039l1.422 1.598a.437.437 0 0 1 0-.078v.002-1.58h.29v2.129h-.167l-.013.001a.15.15 0 0 1-.06-.013h.001a.211.211 0 0 1-.053-.04l-1.42-1.597v1.649h-.278v-2.12h.175c.019 0 .037.004.053.01h-.001zm4.213-.01v.233h-1.179v.7h.955v.225h-.955v.724h1.179v.233h-1.521v-2.115h1.521zM12.112 4.948l14.772 3.619V21.25l-14.772-3.618V4.947zm-.948-1.081v14.382l16.666 4.084V7.953L11.164 3.867z"/>
      <path d="M20.096 29.01 3.429 24.922V10.541l16.667 4.086v14.382z"/>
      <path d="m11.44 4.785 14.58 3.574-6.2 5.352-14.582-3.576 6.202-5.35zm-.276-.918-7.735 6.675 16.667 4.086 7.733-6.675-16.666-4.086zm9.87 24.334 6.796-5.866-6.796-1.667V28.2z"/>
    </symbol>
    <symbol id="close" viewBox="0 0 32 32">
      <path d="M32 3.224 28.776 0 16 12.776 3.224 0 0 3.224 12.776 16 0 28.776 3.224 32 16 19.224 28.776 32 32 28.776 19.224 16 32 3.224z"/>
    </symbol>
    <symbol id="icon-send" viewBox="0 0 32 32">
      <path d="M32 2.667l-32 15 10.227 3.156 15.773-12.323-11.997 13.488 0.009 0.004-0.012-0.004v7.345l5.735-5.576 7.267 2.243 4.999-23.333z"></path>
    </symbol>
    <symbol id="name-back" viewBox="0 0 32 32">
      <path d="M16 16c2.946 0 5.333-2.388 5.333-5.333s-2.388-5.333-5.333-5.333v0c-2.946 0-5.333 2.388-5.333 5.333s2.388 5.333 5.333 5.333v0zM16 18.667c-3.561 0-10.667 1.787-10.667 5.333v1.333c0 0.732 0.599 1.333 1.333 1.333h18.667c0.732 0 1.333-0.601 1.333-1.333v-1.333c0-3.547-7.108-5.333-10.667-5.333z"></path>
    </symbol>
    <symbol id="phone-back" viewBox="0 0 24 32">
      <path d="M19.635 18.487l-2.451-0.28c-0.067-0.008-0.145-0.013-0.223-0.013-0.531 0-1.012 0.215-1.36 0.564l-1.775 1.775c-2.752-1.42-4.94-3.607-6.322-6.278l-0.038-0.081 1.787-1.785c0.347-0.347 0.562-0.827 0.562-1.358 0-0.079-0.005-0.156-0.014-0.233l0.001 0.009-0.28-2.432c-0.115-0.966-0.93-1.708-1.918-1.708-0.001 0-0.002 0-0.002 0h-1.669c-1.091 0-1.997 0.907-1.929 1.997 0.511 8.24 7.101 14.821 15.332 15.333 1.091 0.067 1.997-0.84 1.997-1.931v-1.669c0-0.003 0-0.007 0-0.011 0-0.981-0.739-1.789-1.69-1.899l-0.009-0.001z"></path>
    </symbol>
    <symbol id="email-back" viewBox="0 0 24 32">
      <path d="M20 8h-16c-1.1 0-1.989 0.9-1.989 2l-0.011 12c0 1.1 0.9 2 2 2h16c1.1 0 2-0.9 2-2v-12c0-1.1-0.9-2-2-2zM19.6 12.251l-7.069 4.419c-0.151 0.094-0.334 0.15-0.531 0.15s-0.38-0.056-0.535-0.153l0.004 0.002-7.069-4.419c-0.252-0.15-0.418-0.422-0.418-0.731 0-0.469 0.38-0.849 0.849-0.849 0.174 0 0.337 0.053 0.471 0.143l6.697 4.187 6.7-4.191c0.132-0.088 0.294-0.141 0.468-0.141 0.469 0 0.849 0.38 0.849 0.849 0 0.31-0.166 0.581-0.414 0.729l-0.004 0.002z"></path>
    </symbol>
    <symbol id="checkmark" viewBox="0 0 40 32">
      <path d="M33.784 1.020c0.659-0.637 1.558-1.030 2.548-1.030 2.007 0 3.637 1.611 3.668 3.611l0 0.003c0.001 0.028 0.001 0.061 0.001 0.095 0 0.965-0.368 1.844-0.972 2.504l0.003-0.003-19.576 24.616c-0.674 0.728-1.635 1.182-2.702 1.182-0.495 0-0.967-0.098-1.398-0.275l0.024 0.009c-0.477-0.197-0.884-0.473-1.224-0.816l-0-0-12.984-13.052c-0.724-0.677-1.175-1.638-1.175-2.705 0-0.501 0.1-0.98 0.28-1.416l-0.009 0.025c0.564-1.367 1.887-2.312 3.43-2.312 0.018 0 0.035 0 0.053 0l-0.003-0c1.038 0.019 1.967 0.467 2.622 1.174l0.002 0.002 10.276 10.328 17.040-21.832c0.032-0.039 0.065-0.074 0.1-0.108l-0.004-0z"></path>
    </symbol>
    <symbol id="send" viewBox="0 0 32 32">
      <path d="M32 2.667l-32 15 10.227 3.156 15.773-12.323-11.997 13.488 0.009 0.004-0.012-0.004v7.345l5.735-5.576 7.267 2.243 4.999-23.333z"></path>
    </symbol>
    <symbol id="burger-menu" viewBox="0 0 32 22" fill="none">
      <g clip-path="url(#clip0_297053_2156)">
        <path d="M1.34766 20.0431H30.8861M1.34766 10.7354H30.8861M1.34766 1.42773H30.8861" stroke="#2E2F42" stroke-width="3" stroke-linecap="round" stroke-linejoin="round"/>
      </g>
      <defs>
        <clipPath id="clip0_297053_2156">
          <rect width="32" height="22" fill="white"/>
        </clipPath>
      </defs>
    </symbol>
  </defs>
</svg>